<?xml version="1.0" standalone="no"?><!DOCTYPE svg PUBLIC "-//W3C//DTD SVG 1.1//EN" "http://www.w3.org/Graphics/SVG/1.1/DTD/svg11.dtd"><svg t="1577348927865" fill="#fff" class="icon" viewBox="0 0 1024 1024" version="1.1" xmlns="http://www.w3.org/2000/svg" p-id="4040" xmlns:xlink="http://www.w3.org/1999/xlink" width="20" height="20"><defs><style type="text/css"></style></defs><path d="M925.472 895.008 97.344 895.008c-53.536 0-97.12-43.52-97.12-97.024L0.224 225.024C0.256 171.52 43.808 128 97.344 128l828.096 0c53.568 0 97.12 43.52 97.12 97.024l0 572.928C1022.592 851.456 979.04 895.008 925.472 895.008zM97.344 192c-18.24 0-33.12 14.816-33.12 33.024l0 572.928c0 18.208 14.848 33.024 33.12 33.024l828.096 0c18.24 0 33.12-14.816 33.12-33.024L958.56 225.024C958.592 206.816 943.712 192 925.472 192L97.344 192z" p-id="4041"></path><path d="M512 596.032c-7.232 0-14.496-2.432-20.48-7.424L33.6 206.816C20.032 195.52 18.208 175.328 29.536 161.76c11.328-13.6 31.52-15.36 45.088-4.064l457.888 381.792c13.568 11.328 15.392 31.488 4.064 45.088C530.24 592.128 521.152 596.032 512 596.032z" p-id="4042"></path><path d="M512 596.032c-8.896 0-17.728-3.68-24.064-10.88-11.648-13.28-10.336-33.504 2.944-45.184L932.192 152.512c13.312-11.616 33.504-10.336 45.152 2.944 11.68 13.28 10.368 33.504-2.912 45.152L533.12 588.064C527.04 593.408 519.52 596.032 512 596.032z" p-id="4043"></path><path d="M975.552 864.672c-7.904 0-15.808-2.912-22.016-8.768l-302.56-286.656c-12.832-12.16-13.376-32.384-1.216-45.248 12.16-12.864 32.416-13.344 45.216-1.216l302.56 286.656c12.832 12.16 13.376 32.416 1.216 45.216C992.512 861.312 984.032 864.672 975.552 864.672z" p-id="4044"></path><path d="M56.512 864.672c-8.48 0-16.928-3.328-23.232-9.984-12.16-12.8-11.616-33.056 1.216-45.216l302.56-286.656c12.832-12.096 33.088-11.616 45.248 1.216 12.16 12.832 11.616 33.088-1.216 45.248l-302.56 286.656C72.32 861.76 64.416 864.672 56.512 864.672z" p-id="4045"></path></svg>
