<?xml version="1.0" standalone="no"?><!DOCTYPE svg PUBLIC "-//W3C//DTD SVG 1.1//EN" "http://www.w3.org/Graphics/SVG/1.1/DTD/svg11.dtd"><svg t="1578282437752" class="icon" viewBox="0 0 1024 1024" version="1.1" xmlns="http://www.w3.org/2000/svg" p-id="2859" xmlns:xlink="http://www.w3.org/1999/xlink" width="20" height="20"><defs><style type="text/css"></style></defs><path d="M716.458667 593.706667c-14.72-15.317333-32.426667-23.466667-51.242667-23.466667-18.645333 0-36.565333 8.021333-51.882667 23.338667l-47.914666 47.744c-3.925333-2.133333-7.893333-4.096-11.648-6.058667-5.461333-2.730667-10.666667-5.333333-15.018667-8.021333-44.885333-28.544-85.674667-65.706667-124.8-113.749334-18.944-23.936-31.701333-44.117333-40.96-64.597333 12.458667-11.349333 23.978667-23.210667 35.2-34.56l12.714667-12.885333c31.872-31.872 31.872-73.088 0-104.96l-41.386667-41.386667c-4.693333-4.693333-9.557333-9.557333-14.08-14.421333a715.946667 715.946667 0 0 0-28.544-28.16c-14.677333-14.592-32.298667-22.314667-50.773333-22.314667-18.517333 0-36.394667 7.722667-51.541334 22.272l-0.341333 0.341333-51.541333 52.010667a110.933333 110.933333 0 0 0-32.896 70.485333c-3.626667 44.288 9.386667 85.546667 19.413333 112.512 24.576 66.261333 61.269333 127.701333 116.010667 193.493334a713.6 713.6 0 0 0 237.610666 186.026666c34.858667 16.554667 81.408 36.138667 133.418667 39.466667 3.2 0.128 6.528 0.298667 9.557333 0.298667 35.029333 0 64.426667-12.586667 87.466667-37.632 0.170667-0.298667 0.469333-0.426667 0.64-0.725334 7.893333-9.557333 16.981333-18.218667 26.538667-27.477333 6.528-6.186667 13.184-12.714667 19.712-19.541333 15.018667-15.616 22.869333-33.834667 22.869333-52.48 0-18.773333-8.021333-36.821333-23.338667-52.010667l-83.242666-83.541333z m54.272 159.658666c-0.128 0-0.128 0.170667 0 0-5.888 6.4-11.946667 12.16-18.474667 18.517334-9.856 9.386667-19.882667 19.242667-29.269333 30.293333-15.36 16.426667-33.365333 24.149333-57.002667 24.149333-2.304 0-4.693333 0-6.997333-0.170666-45.013333-2.858667-86.869333-20.48-118.272-35.456a673.578667 673.578667 0 0 1-223.829334-175.317334c-51.712-62.293333-86.272-119.893333-109.184-181.76-14.08-37.802667-19.2-67.2-16.981333-94.976 1.536-17.706667 8.362667-32.426667 20.906667-45.013333L263.424 241.92c7.424-6.997333 15.317333-10.752 23.04-10.752 9.557333 0 17.28 5.76 22.144 10.581333l0.426667 0.469334c9.258667 8.661333 18.048 17.578667 27.306666 27.136 4.693333 4.864 9.557333 9.728 14.421334 14.72l41.386666 41.386666c16.085333 16.085333 16.085333 30.933333 0 47.018667-4.394667 4.394667-8.618667 8.789333-13.056 13.013333-12.714667 13.056-24.832 25.173333-38.058666 37.034667-0.298667 0.298667-0.597333 0.426667-0.725334 0.725333-13.056 13.056-10.666667 25.813333-7.893333 34.432l0.426667 1.365334c10.794667 26.069333 25.941333 50.645333 48.981333 79.914666l0.170667 0.170667c41.813333 51.541333 85.973333 91.733333 134.656 122.496 6.229333 3.968 12.586667 7.125333 18.645333 10.154667 5.461333 2.730667 10.624 5.333333 15.018667 8.064 0.597333 0.298667 1.194667 0.768 1.834666 1.066666a32.853333 32.853333 0 0 0 14.976 3.754667 32.426667 32.426667 0 0 0 23.04-10.453333l51.882667-51.84c5.12-5.162667 13.354667-11.392 22.912-11.392 9.386667 0 17.109333 5.930667 21.802667 11.093333l0.341333 0.298667 83.541333 83.541333c15.616 15.488 15.616 31.402667 0.128 47.445333zM536.917333 319.573333a192.298667 192.298667 0 0 1 104.618667 54.272 193.28 193.28 0 0 1 54.314667 104.618667c1.664 10.026667 10.282667 16.981333 20.138666 16.981333a20.48 20.48 0 0 0 20.309334-23.978666 233.898667 233.898667 0 0 0-65.621334-126.592 233.898667 233.898667 0 0 0-126.634666-65.664 20.565333 20.565333 0 0 0-23.637334 16.682666 20.266667 20.266667 0 0 0 16.512 23.68zM866.261333 465.578667a384.768 384.768 0 0 0-108.117333-208.512 384.768 384.768 0 0 0-208.469333-108.117334 20.394667 20.394667 0 1 0-6.698667 40.362667A344.533333 344.533333 0 0 1 729.344 285.866667a343.509333 343.509333 0 0 1 96.597333 186.325333c1.706667 10.026667 10.325333 16.981333 20.181334 16.981333a20.053333 20.053333 0 0 0 20.181333-23.637333z" fill="#f57619" p-id="2860"></path></svg>
