<?xml version="1.0" standalone="no"?><!DOCTYPE svg PUBLIC "-//W3C//DTD SVG 1.1//EN" "http://www.w3.org/Graphics/SVG/1.1/DTD/svg11.dtd"><svg t="1577672049479" fill="#fff" class="icon" viewBox="0 0 1024 1024" version="1.1" xmlns="http://www.w3.org/2000/svg" p-id="1863" xmlns:xlink="http://www.w3.org/1999/xlink" width="20" height="20"><defs><style type="text/css"></style></defs><path d="M531.968 850.665c-26.159 1.536-57.81 20.666-95.185 55.016-7.308 6.703-14.616 13.778-23.227 22.342l-20.247 20.434c-23.97 23.784-30.348 28.998-47.523 28.998a31.558 31.558 0 0 1-31.604-31.558c0-7.866-0.791 2.792 2.513-39.657 1.49-19.084 2.281-33 2.328-46.685 0.279-37.33-5.679-59.95-11.963-63.209C175.756 728.53 93.09 606.673 93.09 471.831c0-210.432 199.03-378.74 442.183-378.74s442.182 168.308 442.182 378.74c0 210.432-199.029 378.74-442.182 378.74l-3.305 0.094z m-137.96 8.564c47.243-43.473 89.46-68.887 134.19-71.587 3.49-0.186 3.49-0.186 7.075-0.233 210.385 0 379.02-142.568 379.02-315.578 0-173.056-168.635-315.578-379.02-315.578-210.386 0-379.02 142.522-379.02 315.578 0 109.987 68.515 210.99 179.805 268.428 35.84 18.525 46.546 59.299 46.173 119.715 0 3.49-0.093 6.982-0.186 10.52 4.05-3.91 8.006-7.634 11.962-11.265zM345.832 535.04a63.162 63.162 0 1 1-0.047-126.278 63.162 63.162 0 0 1 0 126.278z m189.486 0a63.162 63.162 0 1 1-0.046-126.278 63.162 63.162 0 0 1 0.046 126.278z m189.487 0a63.162 63.162 0 1 1 0-126.278 63.162 63.162 0 0 1 0 126.278z" fill="" p-id="1864"></path></svg>
